<?xml version="1.0" encoding="UTF-8"?>
<svg id="Layer_2" data-name="Layer 2" xmlns="http://www.w3.org/2000/svg" viewBox="0 0 500 500">
  <defs>
    <style>
      .cls-1 {
        fill: #1b4325;
      }

      .cls-2 {
        fill: #fff;
      }

      .cls-3, .cls-4 {
        fill: #d2ad7b;
      }

      .cls-4 {
        fill-rule: evenodd;
      }
    </style>
  </defs>
  <g id="Layer_1-2" data-name="Layer 1">
    <rect class="cls-1" width="500" height="500"/>
    <g>
      <path class="cls-3" d="m132.47,395.2v2.31h-8.94l7.28-12.6h-4.55c-1.55,0-1.86,1.26-1.86,2.15v-2.37h8.16l-7.32,12.65h5.75c1.2,0,1.48-1.28,1.48-2.13Z"/>
      <path class="cls-3" d="m141.04,397.56c-8.81,0-8.83-12.96,0-12.96s8.87,12.95,0,12.96Zm0-12.76c-6.86,0-6.86,12.56,0,12.56s6.92-12.56,0-12.56Z"/>
      <path class="cls-3" d="m159.51,386.41c0-.89-.17-1.73-1.11-1.73h2.53c-.95,0-1.23.83-1.23,1.73v11.09h-.48l-7.94-11.08v9.36c0,.9.17,1.73,1.11,1.73h-2.53c.95,0,1.23-.83,1.23-1.73v-9.31c0-.82-.36-1.8-1.23-1.8h1.92l7.73,10.86v-9.13Z"/>
      <path class="cls-3" d="m175.53,397.51h-4.97c.9,0,1.69-.42,1.34-1.5l-1.05-2.61h-5.35l-.91,2.6c-.32.98.44,1.51,1.34,1.51h-3.72c.94,0,1.83-.59,2.19-1.51l3.45-10.04c.17-.48-.36-1.28-.92-1.28h2.01l4.32,11.06c.37.83,1.32,1.77,2.27,1.77Zm-4.72-4.28l-2.81-7.2-2.47,7.2h5.28Z"/>
      <path class="cls-3" d="m194.34,395.2v2.31h-9.13c.87,0,1.16-.71,1.16-1.53v-9.73c0-.83-.29-1.57-1.15-1.57h8.75v2.37c0-.88-.31-2.15-1.86-2.15h-4.35v5.86h1.86c.83,0,1.36-1.02,1.36-1.74v3.68c0-.72-.53-1.74-1.36-1.74h-1.86v6.37h5.11c1.2,0,1.48-1.28,1.48-2.13Z"/>
      <path class="cls-3" d="m208.83,396c0,.85.39,1.51,1.23,1.51h-3.88c.86,0,1.27-.71,1.27-1.51v-10.89s-4.73,10.5-4.73,10.5l-4.82-8.95v9.13c0,.9.17,1.73,1.11,1.73h-2.53c.95,0,1.23-.83,1.23-1.73v-9.31c0-.82-.36-1.8-1.23-1.8h2.05l4.81,9.14,4.11-9.14h2.49c-.77.07-1.1.37-1.1,1.7v9.62Z"/>
      <path class="cls-3" d="m217.52,384.68c5.04,0,4.9,7.05.27,7.05h-3.17v4.25c0,.81.29,1.53,1.16,1.53h-3.74c.87,0,1.16-.71,1.16-1.53v-9.73c0-.83-.29-1.57-1.15-1.57h5.47Zm-.46.23h-2.43v6.62s2.43,0,2.43,0c3.65,0,3.66-6.63,0-6.63Z"/>
      <path class="cls-3" d="m227.03,397.51h-3.74c.87,0,1.16-.71,1.16-1.52v-9.74c0-.83-.29-1.57-1.15-1.57h3.73c-.87,0-1.16.74-1.16,1.57v9.74c0,.81.29,1.52,1.16,1.52Z"/>
      <path class="cls-3" d="m240.16,397.51h-3.83c.77,0,.94-.64.53-1.45l-2.25-4.5h-3v4.42c0,.81.29,1.52,1.16,1.52h-3.74c.87,0,1.16-.71,1.16-1.52v-9.74c0-.83-.29-1.57-1.15-1.57h5.47c4.57,0,4.88,5.65,1.46,6.71l2.21,4.7c.42.9,1.04,1.42,1.99,1.42Zm-6.12-6.15c3.65,0,3.66-6.46,0-6.46h-2.43v6.45s2.43,0,2.43,0Z"/>
      <path class="cls-3" d="m250.81,395.2v2.31h-9.13c.87,0,1.16-.71,1.16-1.53v-9.73c0-.83-.29-1.57-1.15-1.57h8.75v2.37c0-.88-.31-2.15-1.86-2.15h-4.35v5.86h1.86c.83,0,1.36-1.02,1.36-1.74v3.68c0-.72-.53-1.74-1.36-1.74h-1.86v6.37h5.11c1.21,0,1.48-1.28,1.48-2.13Z"/>
      <path class="cls-3" d="m272.82,395.06c-.19.85-.49,1.48-.91,1.88s-.9.61-1.46.61c-.42,0-.84-.14-1.27-.41-.43-.27-.9-.73-1.41-1.37-.32.33-.62.61-.89.84s-.54.41-.8.55c-.26.14-.53.24-.79.3-.27.06-.55.09-.84.09-.42,0-.81-.07-1.14-.22s-.62-.34-.86-.59c-.24-.25-.42-.54-.55-.86s-.19-.67-.19-1.04c0-.73.22-1.46.67-2.18.22-.37.54-.74.95-1.12.41-.37.93-.76,1.55-1.16-.12-.33-.22-.61-.3-.86-.08-.25-.14-.48-.19-.68-.05-.21-.08-.41-.1-.6-.02-.19-.03-.38-.03-.57,0-.45.07-.86.21-1.23s.33-.69.57-.95.52-.46.84-.6c.32-.14.67-.21,1.04-.21.3,0,.57.06.82.17.25.11.47.27.65.47.18.2.32.43.43.7.1.27.15.56.15.87,0,.33-.04.62-.13.9-.08.28-.22.54-.42.8s-.46.51-.77.76c-.32.25-.71.52-1.19.81.33.69.66,1.34.99,1.96.33.62.68,1.22,1.04,1.79.89-1.25,1.33-2.32,1.33-3.21,0-.23-.06-.46-.17-.66-.11-.21-.29-.33-.54-.37v-.34h3.21v.34c-.44.04-.77.15-.99.35-.08.08-.21.28-.39.61-.17.32-.38.71-.6,1.14-.22.44-.47.9-.73,1.37-.26.48-.52.91-.78,1.29.46.63.86,1.07,1.21,1.33.35.25.71.38,1.08.38s.66-.11.89-.34.41-.57.52-1.01l.28.26Zm-5.45.19c-.34-.54-.63-1.01-.86-1.41-.23-.4-.41-.72-.54-.98-.25-.5-.54-1.12-.85-1.87-1.22.84-1.83,1.84-1.83,3.01,0,.32.04.62.14.92.09.3.22.56.39.79s.37.41.62.54c.24.14.51.2.81.2.16,0,.31-.02.46-.05.15-.03.3-.09.47-.18s.34-.21.54-.37c.19-.16.42-.36.68-.62Zm-1.74-8.81c-.06.19-.09.37-.09.54,0,.15,0,.31.03.46s.05.33.1.52c.05.19.11.42.19.68.08.26.19.58.32.95,1.26-.71,1.89-1.62,1.89-2.74,0-.43-.11-.79-.34-1.08-.22-.28-.51-.43-.85-.43-.23,0-.43.05-.59.16s-.31.24-.42.4c-.11.16-.19.34-.25.53h0Z"/>
      <path class="cls-3" d="m289,384.68c5.04,0,4.9,7.05.27,7.05h-3.17v4.25c0,.81.29,1.53,1.16,1.53h-3.74c.87,0,1.16-.71,1.16-1.53v-9.73c0-.83-.29-1.57-1.15-1.57h5.47Zm-.46.23h-2.43v6.62s2.43,0,2.43,0c3.65,0,3.66-6.63,0-6.63Z"/>
      <path class="cls-3" d="m305.88,397.51h-4.97c.9,0,1.69-.42,1.34-1.5l-1.05-2.61h-5.35l-.91,2.6c-.32.98.44,1.51,1.34,1.51h-3.72c.94,0,1.83-.59,2.19-1.51l3.45-10.04c.17-.48-.36-1.28-.92-1.28h2.01l4.32,11.06c.37.83,1.32,1.77,2.27,1.77Zm-4.72-4.28l-2.81-7.2-2.46,7.2h5.28Z"/>
      <path class="cls-3" d="m318.5,397.51h-3.83c.77,0,.94-.64.53-1.45l-2.25-4.5h-3v4.42c0,.81.29,1.52,1.16,1.52h-3.74c.87,0,1.16-.71,1.16-1.52v-9.74c0-.83-.29-1.57-1.15-1.57h5.47c4.57,0,4.88,5.65,1.46,6.71l2.21,4.7c.42.9,1.04,1.42,1.99,1.42Zm-6.12-6.15c3.65,0,3.66-6.46,0-6.46h-2.43v6.45s2.43,0,2.43,0Z"/>
      <path class="cls-3" d="m329.49,384.68v2.33c-.01-.88-.33-2.1-1.86-2.1h-2.43v11.08c0,.81.29,1.52,1.16,1.52h-3.74c.87,0,1.16-.71,1.16-1.52v-11.08s-2.42,0-2.42,0c-1.53,0-1.85,1.22-1.86,2.1v-2.33h10Z"/>
      <path class="cls-3" d="m341.01,386.41c0-.89-.17-1.73-1.11-1.73h2.53c-.95,0-1.23.83-1.23,1.73v11.09h-.48l-7.94-11.08v9.36c0,.9.17,1.73,1.11,1.73h-2.53c.95,0,1.23-.83,1.23-1.73v-9.31c0-.82-.36-1.8-1.23-1.8h1.92l7.73,10.86v-9.13Z"/>
      <path class="cls-3" d="m353.42,395.2v2.31h-9.13c.87,0,1.16-.71,1.16-1.53v-9.73c0-.83-.29-1.57-1.15-1.57h8.75v2.37c0-.88-.31-2.15-1.86-2.15h-4.35v5.86h1.86c.83,0,1.36-1.02,1.36-1.74v3.68c0-.72-.53-1.74-1.36-1.74h-1.86v6.37h5.11c1.21,0,1.48-1.28,1.48-2.13Z"/>
      <path class="cls-3" d="m366.74,397.51h-3.83c.77,0,.94-.64.53-1.45l-2.25-4.5h-3v4.42c0,.81.29,1.52,1.16,1.52h-3.74c.87,0,1.16-.71,1.16-1.52v-9.74c0-.83-.29-1.57-1.15-1.57h5.47c4.57,0,4.88,5.65,1.46,6.71l2.21,4.7c.42.9,1.04,1.42,1.99,1.42Zm-6.12-6.15c3.65,0,3.66-6.46,0-6.46h-2.43v6.45s2.43,0,2.43,0Z"/>
      <path class="cls-3" d="m372.56,397.56c-3.77,0-4.55-2.11-4.37-3.4.16-1.18,1.36-.92,1.24.05-.22,1.73.43,3.16,3.16,3.16,3.3,0,3.87-3.09,2.32-4.51-1.26-1.15-2.64-1.33-4.61-2.35-3.08-1.6-2.42-5.91,1.92-5.91,2.51,0,3.97,2.11,3.8,3.4-.16,1.18-1.36.92-1.24-.05.22-1.72-.52-3.16-2.6-3.16-2.81,0-3.42,3.2-1.05,4.38,1.62.81,2.96,1.1,4.47,2.29,2.55,2.02,1.34,6.09-3.03,6.09Z"/>
    </g>
    <path class="cls-3" d="m168.05,291.59v1.45l-28.56,49.35-.11.19-14.98,25.12h-8.55v-1.45l41.81-72.98h-18.73c-5.48,0-9.68,1.01-12.63,3.03-2.93,2.01-5.37,5.51-7.3,10.51h-1.22l1.7-15.35,48.57.12Z"/>
    <path class="cls-3" d="m238.25,352.97l1.21.24-.85,14.5h-53.65v-1.45c1.69-.48,2.84-1.65,3.44-3.5.6-1.85.91-5.32.91-10.39v-48.57c0-3.62-.32-6.2-.97-7.73-.65-1.53-1.77-2.54-3.38-3.02v-1.45c2.58.65,6.12.97,10.63.97,1.37,0,4.15-.16,8.34-.48,4.19-.32,7.17-.48,8.94-.48h22.6l1.21,14.14-1.21.36c-1.85-4.75-4.43-8.1-7.73-10.03-3.3-1.93-7.81-2.9-13.53-2.9-2.1,0-4.49.08-7.19.24-2.7.16-4.81.32-6.34.48l-2.42.12v33.71c2.98-2.17,6.2-3.26,9.67-3.26,1.85,0,3.66.22,5.44.67,1.77.44,3.18.87,4.23,1.27,1.05.4,2.27.59,3.69.54,1.41-.04,2.84-.42,4.29-1.15v4.95c-1.13.57-2.24.93-3.32,1.09-1.09.16-2.76.06-5.01-.3-2.26-.36-5.07-1.15-8.46-2.36-4.43-1.45-7.94-1.17-10.51.85v31.17c0,3.22,1.61,4.83,4.83,4.83h14.14c5.48,0,9.89-.95,13.23-2.84,3.34-1.89,5.94-5.3,7.79-10.21Z"/>
    <path class="cls-3" d="m317.27,355.02c2.58,6.28,5.32,10.03,8.22,11.24v1.45h-16.8v-1.45c.8-.24,1.39-.54,1.75-.91s.44-1.07.24-2.12c-.2-1.05-.48-2.07-.85-3.08-.36-1.01-1.07-2.72-2.11-5.14l-7.85-19.09c-.32-.24-.77-.5-1.33-.78-.56-.28-1.67-.74-3.32-1.39-1.65-.64-3.26-1.17-4.83-1.57-1.57-.4-3.42-.64-5.56-.72-2.14-.08-4.07.12-5.8.6-1.73.48-3.42,1.43-5.07,2.84-1.65,1.41-3,3.32-4.05,5.74l-5.92,14.26c-2.74,6.85-2.3,10.63,1.33,11.36v1.45h-12.32v-1.45c1.69-.56,3.24-1.65,4.65-3.26,1.41-1.61,2.92-4.31,4.53-8.1,3.54-8.62,5.8-13.93,6.77-15.95,3.38-7.33,8.66-11,15.83-11,2.09,0,4.31.48,6.65,1.45,2.34.97,4.15,1.89,5.44,2.78l2.05,1.45-13.41-32.02c-.24-.56-.54-1.29-.91-2.17-.36-.88-1.05-2.11-2.05-3.68-1.01-1.57-1.95-2.48-2.84-2.72v-1.45c.4.08.93.16,1.57.24.64.08,1.65.18,3.02.3,1.37.12,2.42.18,3.14.18.72-.08,1.37-.18,1.93-.3.56-.12.93-.22,1.09-.3l.36-.24,26.46,63.56Z"/>
    <circle class="cls-2" cx="155.46" cy="363.5" r="6.28"/>
    <path class="cls-3" d="m390.43,304.88c-1.01-2.58-2.58-4.97-4.71-7.19-2.14-2.21-5.18-3.89-9.12-5.01-3.59-1.02-7.72-1.34-12.38-.97v-.12c-.81.12-1.59.22-2.35.31-.94.08-2.03.17-3.28.29v.04c-1.99.16-3.71.22-5.07.24v-.03c-.3.02-.58.03-.85.04-1.53,0-2.41-.05-2.41-.05,0,0,0,.05-.01.12-.25,0-.49,0-.71,0-2.98,0-6.08-.32-9.3-.97v1.45c1.69.48,2.84,1.57,3.44,3.26s.91,4.71.91,9.06v48.57c0,4.35-.3,7.37-.91,9.06s-1.75,2.78-3.44,3.26v1.45h17.64v-1.45c-1.69-.48-2.84-1.57-3.44-3.26s-.91-4.71-.91-9.06v-59.73c1.48-.25,5.07-.56,5.07-.56.48,0,8.54-.3,11.6.79,3.06,1.09,5.46,2.76,7.19,5.01,1.73,2.26,3,4.73,3.81,7.43.8,2.7,1.21,5.58,1.21,8.64,0,6.45-1.83,11.46-5.5,15.04-3.67,3.58-8.96,5.38-15.89,5.38h-2.42v1.69h2.66c9.83,0,17.4-2.23,22.72-6.71,5.32-4.47,7.97-10.45,7.97-17.94,0-2.82-.5-5.52-1.51-8.1Z"/>
    <path class="cls-4" d="m233.06,259.95c122.25-111.57-2.04-38.4,34.31-76.12l11.82-10.68c-31.81-15.45-26.13-21.59-50.44.45h0c-48.85,44.08,10,11.13,22.49,24.77l-47.49,43.4c-23.18-25.9-22.27-62.03-2.95-86.34,23.86-29.99,61.58-30.67,86.34-15.91,53.4,31.58,39.76,118.16-31.81,123.84-5,.45-16.13-.23-22.27-3.41Z"/>
  </g>
</svg>