<?xml version="1.0" standalone="no"?>
<!DOCTYPE svg PUBLIC "-//W3C//DTD SVG 20010904//EN"
 "http://www.w3.org/TR/2001/REC-SVG-20010904/DTD/svg10.dtd">
<svg version="1.0" xmlns="http://www.w3.org/2000/svg"
 width="300.000000pt" height="74.000000pt" viewBox="0 0 300.000000 74.000000"
 preserveAspectRatio="xMidYMid meet">
<metadata>
Created by potrace 1.10, written by Peter Selinger 2001-2011
</metadata>
<g transform="translate(0.000000,74.000000) scale(0.100000,-0.100000)"
fill="#ffffff" stroke="none">
<path d="M0 370 l0 -370 1500 0 1500 0 0 370 0 370 -1500 0 -1500 0 0 -370z
m2569 175 c53 -31 75 -67 75 -124 0 -38 -6 -57 -27 -84 -15 -20 -36 -38 -46
-42 -18 -5 -15 -14 34 -118 35 -75 60 -116 76 -124 21 -11 17 -13 -41 -12 -36
0 -59 3 -52 6 19 8 15 24 -38 131 l-49 102 -63 0 -63 0 3 -107 c3 -85 7 -111
20 -120 13 -11 5 -13 -46 -13 l-62 0 15 24 c14 21 16 58 13 250 -3 202 -5 226
-21 238 -15 11 3 13 110 13 109 0 133 -3 162 -20z m-1889 12 c0 -2 -65 -116
-144 -253 l-144 -249 76 -3 c105 -4 157 5 191 34 l29 24 -10 -34 -11 -35 -184
-3 c-100 -2 -183 -3 -183 -2 0 0 14 17 32 37 24 27 292 471 284 472 0 0 -54
-2 -118 -5 -103 -4 -120 -8 -149 -29 -28 -21 -31 -22 -25 -5 5 10 11 27 13 37
5 15 22 17 174 17 93 0 169 -2 169 -3z m360 -22 c0 -25 -1 -25 -25 -9 -32 21
-187 25 -207 6 -9 -9 -14 -49 -16 -120 -4 -105 -4 -107 15 -89 13 11 37 17 69
17 27 1 67 7 89 15 22 8 41 15 43 15 1 0 2 -16 2 -35 0 -19 -1 -35 -2 -35 -2
0 -21 7 -43 15 -65 23 -122 19 -151 -10 -25 -25 -26 -30 -22 -126 4 -126 10
-133 115 -126 48 3 82 11 107 25 40 24 40 24 26 -12 l-10 -26 -154 0 -155 0
10 28 c12 34 8 449 -5 475 -8 16 3 17 153 17 l161 0 0 -25z m331 -199 c43
-120 90 -236 104 -257 l25 -39 -50 0 c-34 0 -49 4 -45 11 4 6 -8 57 -26 115
l-32 104 -82 0 -82 0 -33 -99 c-18 -55 -30 -106 -27 -115 5 -13 -1 -16 -30
-16 l-36 0 20 22 c30 33 34 44 108 256 63 179 66 194 51 211 -24 26 -20 33 21
29 l36 -3 78 -219z m448 199 c53 -31 74 -67 75 -126 1 -46 -2 -54 -36 -84 -43
-40 -91 -55 -175 -55 l-63 0 0 -104 c0 -59 4 -108 10 -111 22 -13 7 -20 -44
-20 -45 0 -52 2 -43 14 8 9 13 84 15 226 3 176 1 217 -12 249 l-16 38 128 -3
c105 -3 133 -7 161 -24z m421 0 c0 -25 -1 -25 -25 -9 -34 22 -178 25 -200 4
-11 -12 -17 -45 -21 -120 -5 -99 -4 -103 13 -88 11 9 45 17 84 21 37 2 80 11
96 19 l30 15 0 -43 0 -42 -25 16 c-15 10 -48 16 -93 16 -89 1 -99 -8 -101
-100 -3 -164 2 -174 90 -174 71 0 118 13 148 41 l23 21 -11 -35 -11 -36 -159
-3 c-138 -3 -157 -1 -152 12 28 67 33 440 6 488 l-13 22 161 0 160 0 0 -25z"/>
<path d="M2370 420 l0 -130 63 0 c100 0 148 39 149 123 2 100 -38 137 -147
137 l-65 0 0 -130z"/>
<path d="M765 70 c3 -5 8 -10 11 -10 2 0 4 5 4 10 0 6 -5 10 -11 10 -5 0 -7
-4 -4 -10z"/>
<path d="M1257 480 c-3 -8 -19 -55 -36 -103 -17 -48 -31 -89 -31 -90 0 -1 34
-2 75 -2 41 0 75 0 75 0 0 0 -18 47 -39 105 -22 58 -41 98 -44 90z"/>
<path d="M1430 81 c0 -5 5 -13 10 -16 6 -3 10 -2 10 4 0 5 -4 13 -10 16 -5 3
-10 2 -10 -4z"/>
<path d="M1620 413 l0 -128 75 5 c63 4 78 9 101 31 49 49 48 152 -2 197 -21
19 -37 22 -100 22 l-74 0 0 -127z"/>
<path d="M1965 520 c3 -5 8 -10 11 -10 2 0 4 5 4 10 0 6 -5 10 -11 10 -5 0 -7
-4 -4 -10z"/>
</g>
</svg>
